<?xml version="1.0" encoding="UTF-8"?>
<svg id="Layer_1" xmlns="http://www.w3.org/2000/svg" xmlns:xlink="http://www.w3.org/1999/xlink" version="1.1" viewBox="0 0 125 23">
  <!-- Generator: Adobe Illustrator 30.1.0, SVG Export Plug-In . SVG Version: 2.1.1 Build 136)  -->
  <defs>
    <style>
      .st0 {
        fill: none;
      }

      .st1 {
        clip-path: url(#clippath);
      }
    </style>
    <clipPath id="clippath">
      <rect class="st0" y="0" width="125" height="23"/>
    </clipPath>
  </defs>
  <g class="st1">
    <g>
      <path d="M73.6,16.1c-4.1,2-8.4,1.8-9.6-.7,0-.1-.1-.3-.2-.5-1.6.7-3.2,2.1-4.4,3.2l-.9,2.1c-.6,1.4.6,2.6,2.6,2.6h11.7c2,0,4.2-1.2,4.8-2.6l3.5-8.4c-2.1,1.2-4.9,2.7-6.4,3.6-.4.2-.8.4-1.2.6h0Z"/>
      <path d="M69.2,7.4h0c0,0,.2,0,.2-.1,4.1-2.2,8.4-1.8,9.6.6,0,.2.2.4.2.7,2-.9,4-2.9,5.1-4.1l.7-1.6c.7-1.6-.5-2.8-2.5-2.8h-11.7c-2,0-4.3,1.2-4.9,2.8l-3.5,8.4c2.2-1.2,4.9-2.7,6.2-3.4.2-.1.4-.2.6-.3h0Z"/>
      <path d="M70.4,9.8c-1.8,1.2-2.6,3-1.8,4,.8,1.1,2.9.8,4.7-.5,1.8-1.2,2.6-3,1.8-4-.7-1-2.9-.7-4.7.5Z"/>
      <path d="M17.3,12.8h-4.3v8.1H4.3v-2.8H0v2.5l2.4,2.4h12.5l2.4-2.4v-7.8Z"/>
      <path d="M99.3,20.6v-7.8h-4.6v8.1h-8.4v-2.8h-4.6v2.5l2.2,2.2.3.3h12.8l.5-.5,1.9-1.9Z"/>
      <path d="M105.7,12.8h-4.3v10.2h4.3v-10.2Z"/>
      <path d="M53.6,20.8v-.3l2.5-2.5v-2.8l-2.4-2.4h-15.3v10.2h4.3v-8h9.2v3.1h-5.3l4.9,4.9h4.5l-2.2-2.2Z"/>
      <path d="M36.8,20.7v-5.4c-.5-.5-2-1.9-2.4-2.4h-12.9c-.5.5-2,1.9-2.4,2.4v5.4l2.3,2.3h12.9l2.5-2.3h0ZM32.5,20.9h-9.2v-5.9h9.2v5.9Z"/>
      <path d="M120.7,23l4.3-4.3v-3.5l-2.4-2.4h-14.7v10.2h4.3v-8h8.6v8Z"/>
    </g>
  </g>
</svg>