<svg width="200" height="20" viewBox="0 0 200 20" fill="none" xmlns="http://www.w3.org/2000/svg">
<path d="M200 0.534973V2.82333H195.522V19.4163C195 19.8127 193.673 19.8182 193.133 19.4163V2.82333H188.655V0.534973H199.999H200Z" fill="#131C20"/>
<path d="M111.344 9.52681C111.911 19.2465 100.404 23.8646 95.0134 16.0522C89.661 8.29494 96.5868 -2.32238 105.077 0.450716C106.428 0.892644 107.362 1.6674 108.507 2.49878C108.73 2.84818 106.923 3.76656 106.64 3.96957C100.599 -1.0256 92.4676 6.60318 96.3941 13.8853C99.5093 19.6635 107.702 18.375 108.957 11.8138H102.092C102.185 11.0874 101.859 10.0917 102.316 9.52543H111.345L111.344 9.52681Z" fill="#131C20"/>
<path d="M171.343 13.7762V0.53497H173.583V19.6622L161.194 6.4209V19.6622H158.956V0.372009L171.343 13.7762Z" fill="#131C20"/>
<path d="M0 19.6621L10.2224 0.370605L20.2987 19.6621H17.836L16.0208 16.4181H4.20233L2.4627 19.6621H0ZM14.7762 14.1035L10.2967 5.27601L5.52249 14.1035H14.7762Z" fill="#131C20"/>
<path d="M146.119 19.4992H143.508L141.917 16.4195H130.098L128.284 19.4992H125.822L135.896 0.374756L146.119 19.4992ZM140.598 14.1035L135.824 5.27601L131.344 14.1035H140.598Z" fill="#131C20"/>
<path d="M77.165 0.534973C77.0718 1.26139 77.398 2.25711 76.9408 2.82333H69.5527V8.87222H76.9408C77.3061 9.41634 77.301 10.7987 76.9408 11.3249H69.5527V17.2108H76.9408C77.3061 17.755 77.301 19.1374 76.9408 19.6635H67.3142V0.534973H77.165Z" fill="#131C20"/>
<path d="M51.3437 0.534973L41.1919 19.8251L30.8951 0.534973H33.5077L41.1201 14.754L48.7311 0.534973H51.3437Z" fill="#131C20"/>
</svg>
