<svg width="120" height="29" viewBox="0 0 120 29" fill="none" xmlns="http://www.w3.org/2000/svg">
<g clip-path="url(#clip0_271_301)">
<path d="M103.789 0.810547L111.288 13.3547L114.636 19.8277C114.266 13.5168 114.433 7.15282 114.396 0.810547H119.88L120 0.930909V28.0525L119.88 28.1728H114.196L106.618 15.5485L103.35 9.15564C103.664 15.3856 103.576 21.642 103.593 27.896L103.469 28.1728H97.9854V0.810547H103.789Z" fill="#010101"/>
<path d="M82.1181 0.0322527C92.3721 -0.600851 96.9816 8.33402 95.6503 17.5281C94.6184 24.6543 89.5318 29.3933 82.1757 28.9753C66.1482 28.0637 66.0522 1.02403 82.1181 0.0322527ZM82.1981 4.92697C74.0495 5.72056 73.8878 21.5538 80.8108 23.7628C85.0721 25.1221 88.4623 22.7012 89.6367 18.6418C91.2506 13.0618 89.6567 4.20079 82.1981 4.92697Z" fill="#010101"/>
<path d="M68.2053 8.91481H62.5215C62.5407 7.62132 61.9291 6.29173 60.8156 5.60967C58.2843 4.05781 52.0313 4.25279 52.6013 8.46707C52.7798 9.78302 54.6363 10.3648 55.717 10.7202C60.8748 12.4173 68.889 12.5786 69.1691 19.7843C69.5486 29.528 55.3727 31.1248 49.3183 26.4419C47.012 24.6582 45.924 22.0102 45.9497 19.1063H51.6335C51.591 22.1875 53.891 23.8092 56.7176 24.1607C58.8855 24.4303 63.0138 23.9897 63.4453 21.2768C63.804 19.0196 61.725 17.9965 59.9414 17.3979C55.3519 15.8581 47.365 15.4721 46.9071 9.11863C46.2971 0.660393 56.6056 -1.53581 62.9194 1.01265C66.2432 2.35429 68.3334 5.25421 68.2037 8.91562L68.2053 8.91481Z" fill="#010101"/>
<path d="M5.68379 5.70527V11.8036C5.74223 11.8253 5.77985 11.7234 5.80387 11.7234H19.3729V16.5378H5.68379V23.2781H20.2935L20.4136 23.3985V28.0525L20.2935 28.1728H0V0.810547H20.2935L20.4136 0.930909V5.5849L20.2935 5.70527H5.68379Z" fill="#010101"/>
<path d="M28.499 19.988V28.0523L28.3789 28.1726H22.8152V0.810339L34.226 0.807129C38.6089 0.974031 43.272 2.68879 44.7266 7.21279C45.897 10.8533 45.0308 15.0804 41.9848 17.4973C38.179 20.5168 33.066 19.9342 28.499 19.988ZM28.499 15.0933C31.6235 14.875 37.0551 16.0305 38.9395 12.7599C39.7857 11.2915 39.7521 9.07359 38.7322 7.68461C36.6332 4.82802 31.5514 5.92732 28.499 5.70506V15.0933Z" fill="#010101"/>
</g>
<defs>
<clipPath id="clip0_271_301">
<rect width="120" height="29" fill="white"/>
</clipPath>
</defs>
</svg>
