<svg width="174" height="19" viewBox="0 0 174 19" fill="none" xmlns="http://www.w3.org/2000/svg">
<path d="M69.8763 7.0184V12.7231C69.8588 16.1067 72.5775 18.8684 75.9598 18.9033H88.7957V15.1033H76.626C76.3238 15.1167 76.0686 14.8817 76.0565 14.5795C76.0565 14.5633 76.0565 14.5486 76.0565 14.5324V5.59323C76.0565 5.21309 76.2459 4.92699 76.626 4.92699H88.7957V0.937587H75.9598C72.642 0.894604 69.9193 3.55017 69.8763 6.86661C69.8763 6.91766 69.8763 6.97004 69.8763 7.02109" fill="#131C20"/>
<path d="M68.451 0.840821H61.2258L58.3754 4.16801C57.6138 4.92828 56.3807 4.92828 55.6191 4.16801L52.7688 0.840821H45.6335L52.2879 8.4462C53.0253 9.17289 53.0334 10.359 52.3067 11.0964C52.2705 11.134 52.2315 11.1689 52.1925 11.2025L45.6335 18.9033H52.7621L55.6124 15.5747C56.4184 14.891 57.6125 14.9327 58.3687 15.6701L61.2191 18.9986H68.4443L61.7953 11.2965C61.035 10.5349 61.035 9.30184 61.7953 8.54023L68.4497 0.839478L68.451 0.840821Z" fill="#131C20"/>
<path d="M37.8348 0.842225H28.3301C24.6227 0.842225 21.5803 3.59854 21.5803 7.02109V12.7258C21.5803 16.1457 24.6201 18.906 28.3301 18.906H37.6454C41.0088 19.0054 43.8148 16.3579 43.9142 12.9944C43.9169 12.891 43.9183 12.7876 43.9142 12.6828V6.93916C44.0311 3.68853 41.4911 0.959087 38.2404 0.842225C38.1048 0.836853 37.9704 0.836853 37.8348 0.842225ZM32.705 14.9112H28.3301C27.9916 14.93 27.6974 14.6789 27.6638 14.3417V5.40384C27.6558 5.0452 27.9392 4.747 28.2978 4.73894C28.3086 4.73894 28.3193 4.73894 28.3287 4.73894H37.0732C37.4533 4.73894 37.7394 4.92834 37.7394 5.31384L37.644 14.3363C37.6105 14.6748 37.3176 14.9274 36.9778 14.9099H32.7036L32.705 14.9112Z" fill="#131C20"/>
<path d="M0 6.92566V19H6.0835V13.3893C6.03783 12.6478 6.60199 12.0085 7.34345 11.9628C7.39852 11.9588 7.45494 11.9588 7.51001 11.9628H17.9684V8.82768H6.65437C6.31722 8.79276 6.06604 8.49859 6.08484 8.16009V5.50049C6.06604 5.162 6.31722 4.86783 6.65437 4.83425H18.9194V0.843508H5.70471C2.56692 0.840821 0 3.50311 0 6.92566Z" fill="#131C20"/>
<path d="M132.814 0.840881H116.65V18.9047H122.738V5.40384C122.724 5.10161 122.958 4.84774 123.26 4.83431C123.277 4.83431 123.293 4.83431 123.309 4.83431H132.245C132.55 4.8558 132.793 5.09893 132.815 5.40384V18.9047H138.898V6.92572C138.775 3.61734 136.122 0.964459 132.815 0.840881" fill="#131C20"/>
<path d="M158.006 0.744141H141.844V18.8093H147.929V5.40247C147.949 5.09621 148.193 4.85309 148.498 4.83294H157.435C157.74 4.85443 157.983 5.09756 158.004 5.40247V18.9033H164.089V6.83032C164.001 3.50717 161.329 0.83548 158.006 0.744141Z" fill="#131C20"/>
<path d="M107.703 0.842165H98.1957C94.487 0.842165 91.4446 3.59848 91.4446 7.02103V12.7257C91.4446 16.1456 94.4843 18.906 98.1957 18.906H107.511C110.874 19.008 113.684 16.3632 113.785 12.9984C113.788 12.8936 113.789 12.7889 113.787 12.6828V6.9391C113.903 3.68847 111.363 0.959026 108.113 0.840822C107.976 0.835449 107.84 0.835449 107.703 0.840822M98.197 14.9112C97.8585 14.93 97.5643 14.6788 97.5308 14.3416V5.40378C97.5227 5.04514 97.8061 4.74694 98.1648 4.73888C98.1755 4.73888 98.1863 4.73888 98.1957 4.73888H106.941C107.322 4.73888 107.608 4.92828 107.608 5.31378L107.511 14.3094C107.481 14.6533 107.19 14.9152 106.845 14.9085H98.1957L98.197 14.9112Z" fill="#131C20"/>
<path d="M168.507 1.02219H170.648C170.946 1.01279 171.243 1.06518 171.52 1.17532C171.947 1.36069 172.21 1.79724 172.171 2.262C172.181 2.49975 172.12 2.73481 171.997 2.93764C171.873 3.11898 171.704 3.26405 171.508 3.35942C171.669 3.41852 171.813 3.51792 171.923 3.64821C172.032 3.82015 172.087 4.02297 172.079 4.2258L172.102 4.84235C172.103 4.97398 172.118 5.10428 172.146 5.23323C172.166 5.35412 172.243 5.45889 172.351 5.51531V5.61739H171.57C171.545 5.56903 171.528 5.51799 171.519 5.46426C171.5 5.34337 171.489 5.22248 171.486 5.10025L171.447 4.3346C171.462 4.08611 171.333 3.85104 171.114 3.73015C170.937 3.66433 170.748 3.63612 170.558 3.64687H169.149V5.61873H168.51V1.02219H168.507ZM170.578 3.12838C170.82 3.14181 171.061 3.08002 171.267 2.95242C171.454 2.79795 171.55 2.56019 171.521 2.31976C171.55 2.04439 171.41 1.77978 171.165 1.65083C171.005 1.58232 170.832 1.55008 170.659 1.5568H169.148V3.12972H170.58L170.578 3.12838Z" fill="#131C20"/>
<path d="M170.148 6.6396C168.315 6.6396 166.829 5.15264 166.829 3.31913C166.829 1.48561 168.316 0 170.15 0C171.983 0 173.469 1.48696 173.469 3.32047C173.466 5.15264 171.981 6.63691 170.148 6.6396ZM170.148 0.236409C168.445 0.236409 167.064 1.61591 167.063 3.31913C167.063 5.02234 168.443 6.40319 170.146 6.40453C171.849 6.40453 173.23 5.02503 173.231 3.32181C173.23 1.61859 171.85 0.239095 170.148 0.236409Z" fill="#131C20"/>
</svg>
