<svg width="65" height="21" viewBox="0 0 65 21" fill="none" xmlns="http://www.w3.org/2000/svg">
<path d="M64.9645 13.7526C64.519 10.0454 60.7804 8.41804 57.463 8.23591C53.9105 8.04007 50.1808 8.39356 46.6097 8.23591C45.4709 7.91572 45.4151 6.41855 46.5255 6.0396C50.4912 5.8702 54.6194 6.24817 58.5655 6.03862C60.7657 5.9221 62.539 5.23178 63.6759 3.26166C64.1253 2.48223 64.3731 1.65972 64.5405 0.7765L46.0085 0.772583C41.5483 0.970378 37.5249 4.14782 38.9927 8.98596C39.9797 12.2398 43.5302 13.3531 46.6029 13.5039C50.0574 13.6733 53.6481 13.3668 57.1173 13.5039C58.2718 13.784 58.2032 15.5308 57.0292 15.6973C53.0018 15.9068 48.7375 15.4456 44.7375 15.7012C41.658 15.898 39.5753 17.9239 39.1865 20.9633L57.2945 20.9672C60.6277 20.8634 64.5199 19.1577 64.9655 15.4505C65.0115 15.0706 65.0115 14.1345 64.9655 13.7536L64.9645 13.7526Z" fill="#131C20"/>
<path d="M11.2466 6.03471C14.564 5.77229 20.914 6.78085 23.6087 5.16814C25.1695 4.23498 25.994 2.52239 26.2966 0.774547L11.0723 0.77063C-4.13345 1.43549 -3.35207 20.4551 11.416 20.9614H25.619V8.23885H9.08257C9.40178 10.0259 10.2586 11.7747 11.8791 12.6931C14.1254 13.9671 16.9503 13.3512 19.4276 13.4971V15.7022H11.1594C9.35772 15.7022 6.96753 14.1551 6.38884 12.416C5.27355 9.06332 8.0319 6.28734 11.2456 6.03373L11.2466 6.03471Z" fill="#131C20"/>
<path d="M29.519 8.23883V20.9623H35.7936V8.23883C33.7893 8.73821 31.5244 8.73821 29.519 8.23883Z" fill="#131C20"/>
<path d="M37.1734 3.37132C37.1734 3.35957 37.1734 3.34782 37.1724 3.33607C37.1333 1.48836 35.2043 0 32.8278 0C30.4513 0 28.4822 1.51871 28.4822 3.39287C28.4822 5.26702 30.4278 6.78573 32.8278 6.78573C35.0995 6.78573 36.9629 5.42467 37.1558 3.69054C37.1675 3.59849 37.1734 3.50351 37.1734 3.40853C37.1734 3.40364 37.1734 3.39776 37.1734 3.39287C37.1734 3.38503 37.1734 3.37818 37.1734 3.37034V3.37132Z" fill="#131C20"/>
</svg>
