<svg width="277" height="52" viewBox="0 0 277 52" fill="none" xmlns="http://www.w3.org/2000/svg">
<path d="M208.392 34.9908C208.704 35.0594 208.639 34.7552 208.729 34.5357C211.132 28.6582 212.923 21.6189 215.596 16.0159C215.848 15.4876 215.983 14.9456 216.607 14.7397C217.232 14.5339 220.978 14.5316 221.753 14.6528C222.229 14.7283 222.613 14.9478 222.906 15.3298L230.116 34.9931L230.581 34.4305L237.693 15.2429C238.363 14.3944 242.098 14.4996 243.271 14.6345C244.444 14.7695 244.639 15.2863 245.091 16.2446L252.186 34.9954L259.293 15.5722C259.598 15.1994 259.913 14.742 260.423 14.6437C261.185 14.4996 264.629 14.5248 265.434 14.6528C265.791 14.71 266.111 14.8198 266.351 15.1079L276.999 42.8762L276.674 43.4754C276.306 43.759 272.062 43.8002 271.401 43.6767C270.966 43.5944 270.735 43.3176 270.49 42.986L262.932 22.8699L255.243 43.0844C254.678 43.9077 250.23 43.9077 249.379 43.5143C248.279 43.0043 242.416 25.214 241.208 22.8722L233.33 43.2879C232.854 43.8139 228.495 43.8482 227.763 43.6355C227.422 43.5372 226.915 42.9266 226.739 42.6018L219.482 22.8745L211.56 43.0821C210.913 43.91 207.05 43.8688 206.037 43.6355C205.632 43.5418 205.312 43.3245 205.136 42.9357C202.7 36.8295 200.756 30.4992 198.268 24.4182C198.062 23.9173 197.911 23.1352 197.413 22.8745L190.058 42.8511C189.806 43.2284 189.548 43.5875 189.059 43.6813C188.494 43.7865 184.784 43.7819 184.308 43.6401C183.565 43.4205 183.581 42.508 183.847 41.8974L193.932 15.6225C194.202 15.0805 194.65 14.7489 195.252 14.6551C196.185 14.5088 200.214 14.5065 200.839 14.9867L208.39 34.9954L208.392 34.9908Z" fill="#010101"/>
<path d="M20.3561 0.0710989C37.8399 -1.28278 49.3845 16.9603 41.7964 32.4888C40.0034 36.1594 37.1515 38.8328 33.9749 41.2776C34.9217 44.2827 36.7467 47.274 37.0646 50.3912C36.7742 51.2465 32.8177 51.107 31.9487 51.0064C31.489 50.9538 31.1551 50.8714 30.8029 50.5512C29.8081 49.641 28.6257 44.1798 27.9625 43.7864L22.1079 44.6074C-6.15898 44.4519 -7.94053 2.25972 20.3561 0.0710989ZM22.2863 27.0435C22.8214 26.513 27.5463 26.6022 28.2964 27.2128C29.337 28.0612 31.1848 34.9862 31.7223 34.9885C40.4539 27.7251 38.7707 11.5745 27.9442 7.211C19.1325 3.65706 9.57304 8.43681 7.24948 17.6098C4.19868 29.653 13.0218 40.6418 25.6618 38.1948C25.7099 37.8723 25.6321 37.5864 25.5498 37.2777C24.8157 34.5196 22.6202 31.0229 22.0919 28.37C22.0095 27.9515 21.9592 27.3683 22.2863 27.0435Z" fill="#010101"/>
<path d="M104.331 18.2982C104.434 17.2187 103.892 15.1765 105.234 14.7397C105.902 14.5224 109.141 14.543 109.843 14.7397C110.497 14.9226 110.456 15.6202 110.682 16.1805C110.268 24.4456 111.421 33.5843 110.746 41.7487C110.65 42.9174 110.545 43.5394 109.255 43.6881C108.564 43.7681 105.527 43.7864 105.026 43.5646C103.883 43.0614 104.471 41.0009 104.333 40.0243C102.87 41.8173 100.665 43.4456 98.3942 44.0311C86.4173 47.1185 77.4753 35.4641 80.844 24.194C83.8559 14.1199 97.237 9.76325 104.333 18.2982H104.331ZM94.6778 19.7344C83.0646 20.8116 84.3796 39.7751 96.4434 38.6499C107.764 37.5956 106.547 18.6321 94.6778 19.7344Z" fill="#010101"/>
<path d="M166.26 14.017C191.135 11.1858 188.603 49.6319 164.707 44.0288C148.897 40.3217 150.439 15.8169 166.26 14.017ZM168.092 19.739C156.554 20.6858 157.526 38.9083 168.94 38.6682C180.88 38.4189 180.171 18.7465 168.092 19.739Z" fill="#010101"/>
<path d="M69.7979 40.253C67.7854 42.3045 65.9306 43.7933 62.9965 44.3124C55.2391 45.6823 48.6824 41.3119 48.0786 33.2755C47.7447 28.8228 47.6624 20.743 48.0649 16.3451C48.1655 15.2405 48.3668 14.7763 49.5583 14.6368C50.3038 14.5499 53.1831 14.5407 53.7411 14.806C54.3792 15.1102 54.4364 15.9518 54.4867 16.5761C54.9121 21.6234 54.0362 27.3317 54.4707 32.3722C55.2551 41.4949 69.0432 41.671 69.8093 31.2287C70.189 26.0693 69.4091 20.5257 69.9191 15.3297C70.2233 14.8678 70.5046 14.6962 71.0466 14.6276C71.9774 14.5064 75.3003 14.4241 75.76 15.1971L75.927 42.835C75.5862 44.0197 71.5269 43.887 70.6487 43.6355C69.3817 43.2718 69.8871 41.2502 69.7979 40.253Z" fill="#010101"/>
<path d="M141.108 13.7929C143.221 13.6283 145.652 13.9873 147.678 14.6322C148.749 14.9707 152.213 16.4778 152.268 17.7242C152.3 18.4515 150.027 21.6601 149.263 21.7378C148.499 21.8156 145.641 19.8785 144.22 19.691C129.188 17.7219 130.983 42.6407 145.391 38.204C146.455 37.8769 148.417 36.491 149.215 36.6305C149.869 36.7449 152.129 39.599 152.261 40.2531C152.625 42.0163 147.612 43.7864 146.228 44.0746C123.526 48.7926 120.42 15.4029 141.106 13.7952L141.108 13.7929Z" fill="#010101"/>
<path d="M122.803 43.3999C122.446 43.7567 116.877 44.269 116.916 42.6475L116.898 2.1614C116.898 1.5828 117.374 1.02707 117.945 0.921867C118.442 0.830388 122.108 0.830388 122.476 0.953884C122.862 1.08424 123.006 1.59195 123.07 1.96015L123.096 42.2061L122.803 43.3999Z" fill="#010101"/>
</svg>
